<svg width="18" height="13" viewBox="0 0 18 13" fill="none" xmlns="http://www.w3.org/2000/svg">
<path d="M16.1835 0.347984L6.27523 10.403L1.81651 5.90821C1.59633 5.68625 1.34312 5.57526 1.05688 5.57526C0.770642 5.57526 0.517431 5.68625 0.297248 5.90821C0.253211 5.95261 0.209174 6.0192 0.165138 6.10798C0.121101 6.17457 0.0880734 6.24116 0.066055 6.30775C0.0440367 6.37434 0.0220183 6.45203 0 6.54081C0 6.6074 0 6.68509 0 6.77388C0.0220183 6.84047 0.0440367 6.91815 0.066055 7.00694C0.0880734 7.07353 0.121101 7.14012 0.165138 7.20671C0.209174 7.2733 0.253211 7.33989 0.297248 7.40648L5.54862 12.6671C5.74679 12.889 5.98899 13 6.27523 13C6.58349 13 6.8367 12.889 7.03486 12.6671C7.0789 12.6227 7.12294 12.5783 7.16697 12.5339L17.7028 1.84625C17.9009 1.64648 18 1.40232 18 1.11376C18 0.803013 17.9009 0.547753 17.7028 0.347984C17.3064 -0.0515532 16.8771 -0.107045 16.4147 0.18151C16.3266 0.225903 16.2495 0.281395 16.1835 0.347984Z" fill="white"/>
</svg>
